<svg height="10%" version="1.1" width="100%"  xmlns="http://www.w3.org/2000/svg" preserveAspectRatio="xMidYMid meet" viewBox="0 0 600 442" xmlns:xlink="http://www.w3.org/1999/xlink"><desc>Created with Snap</desc><defs/><g id="root" contentwidth="295.43333333333334" contentheight="171.2">
          <rect class="background" height="2000%" width="2000%" y="-1000%" x="-1000%" style="" fill="#ffffff"/>
          <g class="content" id="content" transform="matrix(1,0,0,1,192.2833,232.4)">
            <g class="icon" style="mask: url(#mask);">
            <svg height="171.2" version="1.1" width="295.43333333333334" xmlns="http://www.w3.org/2000/svg" x="-40" y="-97"><desc>Created with Snap</desc><defs/><svg xmlns:xlink="http://www.w3.org/1999/xlink" version="1.1" xmlns="http://www.w3.org/2000/svg" viewBox="0 0 295.43333333333334 171.2"><defs/><g><path fill="#EC870E" stroke="none" class="nameBg" paint-order="stroke fill markers" d=" M 60 12.5 C -18 22.5 -18 148.7 60 158.7 L 189.43333333333334 158.7 L 183.43333333333334 165.36666666666665 L 205.43333333333334 152.03333333333333 L 64 152.03333333333333 C -10 148.7 -10 22.5 64 19.166666666666668 L 80 19.166666666666668 L 90 12.5 L 60 12.5 M 92 19.166666666666668 L 110 5.833333333333333 L 106 12.5 L 235.43333333333334 12.5 C 313.43333333333334 22.5 313.43333333333334 148.7 235.43333333333334 158.7 L 209.43333333333334 158.7 L 219.43333333333334 152.03333333333333 L 235.43333333333334 152.03333333333333 C 303.43333333333334 148.7 303.43333333333334 22.5 235.43333333333334 19.166666666666668 L 92 19.166666666666668"/></g></svg></svg></g>
            <g id="icon_name_and_slogan_gap">
            </g>
            <g class="name_and_slogan" id="name_and_slogan_id">
              <g class="name"><g id="nameDefaultGroup"><path d="M40 -49.4Q40.2 -50.2 40.5 -51.5Q40.8 -52.8 41.2 -54.2Q41.5 -54.9 41.6 -55.6Q41.8 -56.2 42.1 -56.8Q42.5 -57.9 42.9 -57.9Q43.6 -57.9 45 -57.7Q46.4 -57.5 48 -57.1Q49.7 -56.7 51 -56.3Q52.4 -55.9 53 -55.7L51.3 -52L51.3 -51.5Q51.8 -51.5 52.1 -51.5Q52.5 -51.5 52.8 -51.6Q53.2 -51.7 53.5 -51.7Q53.9 -51.7 54.2 -51.7Q57.1 -51.7 58.9 -50Q60.8 -48.3 61.3 -45.3L61.3 -42.5Q61.3 -40 61 -37.5Q60.6 -35.1 60 -32.6L60 -32L59.2 -29.9Q58.7 -29.7 58 -29.4Q57.5 -29.2 56.8 -29Q56.1 -28.8 55.3 -28.7Q54.7 -28.5 54.1 -28.4Q53.4 -28.3 52.8 -28.2Q52.4 -28.2 52 -28.1Q51.6 -28.1 51.1 -28.1L51.1 -24.2L51.3 -23.9Q52.6 -24.1 53.5 -24.2Q54.4 -24.2 55.6 -24.2Q58.2 -24.2 59.9 -23.2Q61.6 -22.3 62.4 -20.7Q63.4 -19 63.7 -16.8Q64 -14.7 64 -12.4L64 -10.9Q63.9 -9.6 63.8 -8.1Q63.7 -6.5 63.5 -4.8Q63.4 -3 63 -1.6Q62.7 -0.1 62.3 0.7Q61.8 1.7 61.1 1.7Q60.5 1.7 60.2 1.4Q59.8 1.2 59 0.5L57.7 -0.4L55.6 -1.9L53.6 -3.2L52.1 -4.2L51.6 -4.8L51.3 -4.8L51.3 -3.7Q51.3 -3.3 51.3 -2.9Q51.3 -2.5 51.3 -2.1Q51.2 -1.7 51.2 -1.1Q51.2 -0.5 51.3 1.2Q51.3 2.1 51.1 2.8Q51 3.5 50.5 4.1Q50 4.7 49 4.8Q47.5 5 46.2 5Q45 5 43.6 5L42.3 5Q42 5 41.8 4.9L41.5 4.8L41.5 -18.5L38.6 -17.9L38.3 -17.6L38.3 -14.2Q38.3 -12.6 38.4 -10.9Q38.5 -9.3 38.6 -7.7Q38.7 -6 38.8 -4.4Q38.8 -2.7 38.8 -1.1Q37.7 -1.1 36.7 -0.8L34.4 -0.2Q34.3 -0.2 34.1 -0.2Q33.9 -0.2 33.6 -0.1L31 0.2Q30.6 0.3 30.5 0.3Q30.3 0.3 30.2 0.3L29.6 0Q29.5 -0.1 29.4 -1.1Q29.4 -2 29.4 -2.5L29.2 -4.9Q29.2 -5.7 29.1 -6.4Q29.1 -7.1 29.1 -7.3L29.1 -16Q29.1 -16.4 29.2 -17.4Q29.2 -18.4 29.4 -19.5Q29.5 -20.1 29.5 -20.6Q29.5 -21.1 29.5 -21.6Q29.6 -22.1 29.6 -22.4Q29.6 -22.8 29.6 -23Q29.8 -23.6 30.8 -23.9Q31.7 -24.2 32.8 -24.3Q33.3 -24.4 33.8 -24.4Q34.3 -24.4 34.9 -24.4L37.7 -24.4Q38.2 -24 38.5 -23.1Q38.8 -22.3 38.8 -21.9Q39.1 -21.9 39.7 -22.2Q40 -22.5 40.4 -22.5L40.8 -22.6Q41.2 -22.8 41.2 -23L41.2 -27.5L40.9 -27.8Q40 -27.6 39.1 -27.5Q38.3 -27.5 37.3 -27.5L35.1 -27.5Q33.5 -28.4 32.7 -31Q31.8 -33.5 31.5 -36.6Q31 -39.6 31.1 -42.5Q31.2 -45.5 31.2 -47.2L31 -50.8Q31.2 -51.3 31.6 -51.3Q32 -51.4 32.2 -51.4L38.8 -51.4Q39.5 -51.4 39.7 -50.8Q39.8 -50.2 40.1 -50.2L40 -49.4zM10.5 -47.3Q11.5 -49.1 12.4 -50.8Q13.3 -52.6 14.1 -53.9Q14.8 -55.3 15.3 -56.2Q15.8 -57 15.8 -57.1L16 -57.1L17.6 -56.2L22.5 -53.9Q23.4 -53.4 23.8 -52.8Q23.2 -51.4 22.6 -49.9Q22 -48.3 21.3 -46.9Q21.6 -46.9 21.8 -46.9Q22.1 -46.9 22.5 -46.8Q22.6 -46.8 23.8 -46.9Q24.9 -46.9 26.3 -47Q27.6 -47.1 28.8 -47Q29.9 -47 29.9 -46.9Q29.9 -46.7 29.9 -46Q30 -45.4 30 -44.6Q30 -43.8 30 -43.3Q30 -42.7 30 -42.6Q28.7 -41.9 27.5 -41.9Q26.4 -41.9 25.1 -41.9Q23.2 -41.8 21.6 -41.7Q19.9 -41.6 19.3 -41.1Q18.9 -40.9 18.9 -40.5Q18.9 -40.4 18.6 -39.5Q18.3 -38.5 17.8 -37.4Q17.4 -36.3 17.1 -35.3Q16.7 -34.4 16.7 -34.3L16.9 -34.3Q17.2 -34.3 18.2 -34.4Q19.3 -34.6 20.3 -34.8Q20.9 -34.8 21.3 -34.9Q21.8 -35 22.2 -35.1Q23 -35.2 23.2 -35.4L25 -35.7Q25.8 -35.9 26.7 -35.9Q26.9 -35.1 27.1 -34.3Q27.2 -33.6 27.3 -32.9Q27.4 -32.1 27.4 -31.5Q27.4 -31.2 26.9 -31.1Q26.4 -31 25.9 -30.8Q25.3 -30.8 24.8 -30.7Q24.3 -30.6 24.3 -30.6Q23.6 -30.4 22.9 -30.3Q22.2 -30.2 21.7 -30.1L21.4 -29.8Q21.4 -29.6 21.3 -29.1Q21.3 -28.6 21.3 -28Q21.2 -27.5 21.2 -27Q21.2 -26.6 21.2 -26.4L21.2 -23.5Q21.5 -23.5 22.9 -23.8Q24.2 -24 25.4 -24.3Q26.4 -24.5 26.9 -24Q27.5 -23.5 27.4 -22.8Q27.3 -21.8 27.2 -20.7Q27.1 -19.7 27 -19.7Q26.3 -19.5 26.1 -19.5Q24.8 -19.2 23.6 -18.9Q22.6 -18.7 21.8 -18.5Q21 -18.4 20.9 -18.4L20.7 -16.4Q20.7 -16.1 20.6 -15.8Q20.6 -15.5 20.6 -15.4L20.6 -9.8L21.2 -9.8L25.1 -11.2L25.3 -11.2Q25.9 -10.9 26.3 -9.8Q26.6 -8.8 26.9 -7.6Q27.1 -6.3 27.1 -5.2Q27.2 -4.1 27.2 -3.7Q27.2 -3.5 27.2 -3.1Q27.1 -2.7 26.9 -2.5Q23.7 -0.2 20.4 1.6Q17.1 3.4 13.2 4.5Q12.7 4.2 12.2 3.6Q11.8 2.9 11.6 2Q11.3 1.2 11.2 0.4Q11.1 -0.4 11.1 -1.1L11.1 -16.1Q10.7 -16.1 9.9 -16Q9.1 -15.8 8.6 -15.7Q7.6 -15.4 6.3 -15.4Q6.2 -15.4 6 -15.8Q5.7 -16.3 5.5 -16.9Q5.3 -17.5 5.2 -18.1Q5.1 -18.4 5.1 -19Q5 -19.7 5 -19.8L5 -20.7Q5.2 -20.8 6.4 -21.1Q7.5 -21.3 8.7 -21.6Q9.9 -21.9 10.9 -22.3Q11.8 -22.7 11.7 -23.2Q11.8 -23.4 11.9 -24Q12 -24.7 12.1 -25.5Q12.2 -26.3 12.3 -27.1Q12.5 -27.9 12.6 -28.5Q11.5 -28.4 10.7 -28.2Q9.9 -28.1 9.1 -28Q8.4 -27.9 8.3 -27.8Q7.8 -27.6 7.5 -28Q7.3 -28.4 7.1 -29.1Q6.9 -29.7 6.9 -30.5Q7 -31.4 7 -31.8Q7 -32 7.4 -32.3Q7.8 -32.5 8.2 -32.7Q8.7 -32.8 9.6 -33Q10.5 -33.2 10.7 -33.2L10.4 -33.5Q10.4 -33.5 9.6 -33.9Q8.9 -34.3 7.9 -34.9Q7 -35.4 6.2 -35.9Q5.3 -36.4 5.1 -36.6L5.3 -37.7L10.5 -47.3zM40.4 -43.6Q40.4 -42.8 40.4 -42.3Q40.5 -41.8 40.6 -41L40.9 -41Q41.2 -41 41.5 -41.1Q42.1 -41.2 42.7 -41.2Q43.3 -41.3 43.9 -41.5Q44.2 -41.5 44.4 -41.5Q44.6 -41.5 44.6 -41.5L44.9 -41.5L45.9 -41.7L47.7 -42Q48.3 -42 48.7 -42Q49.2 -42.1 49.7 -42.2Q50.5 -42.3 51 -42.4Q51.6 -42.5 51.8 -42.8Q51.8 -43 51.9 -43.3Q51.9 -43.6 51.9 -44.1Q51.9 -44.9 51.7 -45.9Q51.5 -47 50.9 -47.4L50.1 -47.4Q49.8 -47.4 48.3 -47.2Q46.8 -46.9 45.1 -46.6Q43.5 -46.2 42 -45.8Q40.6 -45.3 40.4 -44.9L40.4 -43.6zM41.5 -37Q41.2 -37 41.2 -36.7Q41.1 -36.6 41.2 -36.6Q41.2 -36.2 41.5 -35.5Q41.8 -34.7 42 -33.9L42.7 -32.5Q43 -31.9 43 -31.9L44.9 -31.9Q45.9 -31.9 46.9 -31.9Q47.9 -32 48.8 -32.2Q49.6 -32.5 50.2 -33.1Q50.8 -33.7 51.2 -34.8Q51.2 -35.4 51.6 -36.4Q52 -37.5 52 -38L52 -38.2Q49.4 -38.2 46.7 -37.9Q44.1 -37.6 41.5 -37zM50.8 -7.3Q52.4 -7.3 53.2 -7.9Q54.1 -8.6 54.4 -9.6Q54.5 -10.2 54.5 -10.7Q54.6 -11.3 54.6 -12Q54.5 -12.8 54.5 -13.4Q54.5 -14.1 54.5 -14.9L54.5 -18Q54.1 -18.6 53.8 -19Q53.4 -19.4 52.6 -19.4L52.1 -19.4Q51.9 -19.4 51.3 -19.2L50.8 -19.1L50.8 -7.3M82.7 -10.2Q83.7 -10.3 85.9 -10.5Q88.1 -10.7 91 -11Q94 -11.3 97.5 -11.6Q101.2 -11.9 105 -12.2Q104.7 -12.8 104.3 -13.5Q103.9 -14.1 103.3 -15.1Q103.5 -15.7 104.1 -15.9Q104.7 -16.1 105.3 -16.3L108.6 -16.8Q108.6 -16.9 109.5 -17.5Q110.5 -18.1 111.6 -18.8Q112.9 -19.6 114.7 -20.6L115.2 -20.9Q115.3 -21 115.3 -21.3L114.7 -21.5L112.8 -21.5Q112.2 -21.5 111 -21.4Q109.7 -21.3 107.9 -21.1Q106.1 -20.9 104 -20.6Q101.9 -20.4 99.7 -20.2Q94.7 -19.5 88.8 -18.8L88.3 -18.8Q87.5 -18.8 87.3 -19.6Q87 -19.9 86.8 -20.7Q86.5 -21.4 86.5 -21.7Q86.5 -22.1 86.8 -22.6Q86.9 -22.7 87.4 -22.8Q87.9 -22.9 88.5 -23Q89.2 -23.1 89.8 -23.1Q90.5 -23.2 90.7 -23.2Q91 -23.2 92.1 -23.3Q93.2 -23.5 94.8 -23.6Q96.3 -23.8 98 -24Q99.7 -24.3 101.3 -24.5Q102.8 -24.7 103.9 -24.8Q105 -25 105.3 -25Q107.1 -25.2 108.9 -25.5Q110.6 -25.7 112.5 -26Q114.3 -26.3 116.1 -26.4Q117.9 -26.6 119.7 -26.6Q121.3 -26.6 122.9 -26.2Q124.4 -25.9 125.6 -25.2Q128.1 -23.7 128.1 -21Q128.1 -20.1 127.5 -19.4Q126.9 -18.6 126.1 -18Q125.6 -17.6 124.8 -17.2Q124.1 -16.8 123.1 -16.4Q122.2 -16 121.2 -15.6Q120.2 -15.2 119.5 -14.8L116.6 -13.6Q116.1 -13.2 115.6 -13.1Q119.4 -13.4 122.8 -13.7Q126.2 -14 128.8 -14.2Q131.4 -14.4 133 -14.5Q134.5 -14.6 134.5 -14.6Q134.9 -14.1 135.2 -14Q135.6 -13.9 135.6 -13.4Q135.7 -12.2 135.8 -11.2Q135.9 -10.4 135.7 -9.8Q135.6 -9.1 135.2 -9.1L115.6 -7.5Q116.1 -4.8 115.8 -2.6Q115.6 -1.2 115.3 0.3Q115 1.8 114.4 3Q113.8 4.2 113.1 5.1Q112.5 5.9 111.5 5.9Q110 5.9 108.2 5.3Q106.5 4.7 104.7 3.8Q103 3.1 101.3 2.2L98.6 0.7Q98.4 0.6 98.3 0.5Q98.1 0.5 98 0.4Q97.6 0.2 97.3 0.1Q97 -0.1 96.8 -0.4Q96.5 -0.6 96.5 -0.9Q96.5 -1.7 97 -2Q97.6 -2.3 98.3 -2.5L101.8 -2.5Q102.2 -2.5 102.6 -2.4Q103 -2.4 103.4 -2.4Q104.2 -2.4 104.8 -2.8Q105.3 -3.3 105.6 -3.9Q105.8 -4.3 105.9 -5.2Q106 -6 106 -6.7L81.8 -4.8Q81.1 -5.2 80.7 -6Q80.3 -6.8 80.3 -7.6Q80.3 -8.8 81 -9.3Q81.6 -9.9 82.7 -10.2zM92 -31Q91.9 -31.5 91.7 -33.2Q91.6 -34.9 91.5 -36.8Q91.4 -38.7 91.3 -40.3Q91.3 -41.9 91.4 -42L91.7 -42.3L98.1 -42.4Q98.3 -42.4 98.7 -42.4Q99.1 -42.3 99.6 -42.3Q100.2 -42.2 100.5 -42.1Q100.9 -42 101 -41.9Q101.2 -41.7 101.4 -41.4Q101.6 -41.2 102 -41.2L102.2 -41.2Q105.5 -41.6 108.4 -42Q111 -42.3 113.3 -42.6Q115.6 -42.8 116.6 -42.8Q118.5 -42.8 120.2 -42.6Q122 -42.3 123.4 -41.8Q124.8 -41.1 125.7 -40Q126.5 -39 126.5 -37.2Q126.5 -36.6 126.4 -35.8Q126.2 -34.9 126 -34.2Q125.9 -33.4 125.7 -32.8Q125.5 -32.2 125.4 -32.1Q125.4 -32 125.2 -31.5Q125 -31 124.5 -30.5Q124 -29.9 123.2 -29.3Q122.3 -28.8 121 -28.7Q117.3 -28.4 114.2 -28.2Q112.9 -28 111.6 -27.9Q110.2 -27.9 109.1 -27.8Q107.9 -27.7 107.1 -27.6Q106.2 -27.6 105.8 -27.5Q104.1 -27.2 102.5 -27.1Q100.9 -27 99.2 -27Q95.9 -27 94.3 -28.1Q92.7 -29.3 92 -31zM102 -53Q102 -53.3 102.9 -53.8L107.1 -55.7Q107.7 -56 108.1 -56.1Q108.4 -56.2 108.6 -56.2L108.9 -56.2Q109 -56.2 109.8 -55.4Q110.6 -54.7 111.6 -53.8Q112.5 -52.9 113.3 -52Q114.1 -51.2 114.1 -50.9Q114.1 -50.7 113.8 -50.5Q113.5 -50.2 113.2 -50.1Q112.8 -49.9 112.5 -49.7Q112.2 -49.5 112.2 -49.5Q118.2 -49.6 122.8 -49.8Q124.8 -49.9 126.8 -50Q128.7 -50 130.2 -50.1Q131.7 -50.2 132.6 -50.2Q133.6 -50.2 133.6 -50.2Q134 -49.8 134.3 -49.7Q134.6 -49.5 134.6 -49.1Q134.8 -48 134.8 -47.2Q134.8 -46.5 134.6 -45.9Q134.5 -45.4 134.1 -45.4L82.7 -43Q82 -43.4 81.6 -44.2Q81.3 -44.9 81.4 -45.6Q81.4 -46.6 82.1 -47.1Q82.8 -47.6 83.8 -47.7Q86.2 -48 88.7 -48.1Q91.3 -48.3 93.9 -48.5Q96.5 -48.6 99 -48.7Q101.5 -48.8 103.7 -49L104 -49L104.2 -49.2Q104.1 -49.2 103.8 -49.7Q103.5 -50.1 103.2 -50.7Q102.8 -51.3 102.2 -52.1Q102 -52.3 102 -52.6Q102 -52.8 102 -53zM102.5 -36.4Q102.5 -35.9 102.6 -35.1Q102.7 -34.2 102.9 -33.4Q103.2 -32.5 103.7 -31.9Q104.2 -31.2 105.2 -31.2Q106.3 -31.2 107.7 -31.2Q109 -31.2 110.2 -31.3Q111.5 -31.4 112.5 -31.5Q113.5 -31.7 114 -31.9Q115.2 -32.3 115.6 -33.4Q116.1 -34.6 116.1 -36.6Q116.1 -37.7 115.6 -38.1Q115.1 -38.5 113.4 -38.5Q112.8 -38.5 111.2 -38.4Q109.7 -38.3 107.9 -38.2Q106.1 -38 104.6 -37.8Q103 -37.7 102.5 -37.5L102.5 -36.4M170.1 -17.4Q171.7 -18.4 173.3 -19.4Q174.6 -20.2 176 -21.2Q177.5 -22.1 178.5 -22.9Q178.8 -23.1 179 -23.6Q179.1 -24 179.3 -24.6Q179.4 -25 179.4 -25.6L179.9 -32.8Q180 -34.6 180.1 -36Q180.3 -37.4 180.5 -38.4Q180.5 -39.3 180.8 -39.3L190.5 -39.3Q191.1 -39.3 191.2 -39.2Q191.3 -39.2 191.3 -38.7Q191.3 -37.7 191.2 -36.4Q191.2 -35.1 191 -34Q190.9 -32.8 190.8 -31.7Q190.8 -30.6 190.8 -29.6L191 -29.6Q191.2 -29.6 191.7 -29.9Q191.8 -30 191.9 -30Q192 -30.1 192.1 -30.2L196.6 -33.2Q197.8 -34.1 198.9 -35.1Q200.1 -36.1 201.2 -36.6Q201.5 -36.6 202.6 -35.6Q203.6 -34.6 204.7 -33.4Q205.8 -32.3 206.7 -31Q207.6 -29.7 207.6 -29.2L206.8 -28.4L205.9 -27.5L205.2 -26.9L189.8 -16.7L189.8 -10.9Q189.8 -8.8 191.6 -8.2Q192 -8.1 193.4 -8.1Q194.7 -8.1 196.2 -8.1Q197.8 -8.2 199.1 -8.3Q200.4 -8.4 200.7 -8.4Q202 -8.6 202 -9.2L203 -17.6Q203 -18.5 203.8 -18.5L206.5 -18.5Q207.4 -18.6 208.1 -17.6Q208.8 -16.6 209.3 -15Q209.7 -13.4 210 -11.4Q210.3 -9.4 210.4 -7.6Q210.5 -5.7 210.3 -4.1Q210.2 -2.6 210 -1.8Q209.8 -0.6 209.1 0.1Q208.4 0.9 207.6 1.3Q206.7 1.7 205.9 1.9Q205.1 2.1 204.8 2.2Q202.9 2.6 201.2 2.7Q199.4 2.8 198.6 2.8L195.3 2.8Q193.2 2.8 191 2.6Q188.8 2.5 186.7 1.7Q184.6 1.1 183 -0.2Q181.3 -1.6 180.3 -3.9Q179.7 -5.5 179.4 -7.3Q179.1 -9.1 178.9 -10.8Q178.8 -10.8 178.3 -10.6Q177.8 -10.4 177.3 -10Q176.8 -9.7 176.3 -9.4Q175.8 -9.1 175.8 -9.1Q175.6 -9.2 175 -9.4Q174.3 -9.6 174.2 -9.9Q173.9 -10.4 173.5 -10.6Q173.3 -10.9 172.9 -11.5Q172.4 -12.2 172.1 -13Q171.8 -13.4 171.5 -14.1Q171.2 -14.8 170.9 -15.5Q170.5 -16.3 170.1 -17.4zM166 -37.9Q165.9 -37.9 166 -38Q166.2 -38.1 166.4 -38.3Q166.6 -38.5 166.8 -38.6Q167 -38.7 167.1 -38.8Q167.2 -38.7 168.1 -38.2Q168.9 -37.7 169.9 -37.1L172.5 -35.6Q172.5 -35.6 172.9 -35.2Q173.3 -34.9 173.8 -34.6Q174.4 -34.1 175 -33.5Q173.9 -32.1 172.9 -30.7Q172.2 -29.5 171.3 -28Q170.4 -26.5 170 -25.3Q170.1 -23.6 170.1 -22.1Q170.1 -20.5 169.9 -19.1Q169.7 -16.1 169.7 -12.9Q169.7 -11.2 169.7 -9.6Q169.8 -7.9 169.8 -6.3Q169.9 -4.8 170 -3.2Q170 -1.6 170 0L170 1.9Q169.6 2.6 168.5 2.9Q167.4 3.2 166 3.4Q164.6 3.5 163.3 3.6Q162 3.6 161.6 3.6L160.2 3.6Q159.8 3.2 159.6 2.5Q159.4 1.8 159.4 1.4Q159.2 -2.9 159.2 -7Q159.1 -11.1 159.1 -15.4L156.5 -12.6L156.2 -12.6L156 -12.9Q155.3 -13.8 154.7 -14.8Q154 -15.8 153.4 -16.8L150.7 -21L150.7 -21.3Q150.7 -21.8 151 -22.2Q151.2 -22.6 151.6 -22.9Q151.9 -23.2 152.3 -23.5Q152.6 -23.8 152.9 -23.8L166 -37.9zM170 -40.2Q170.1 -40.2 169.5 -40.1Q169 -40 168.3 -40Q167.5 -39.8 166.4 -39.8Q166.2 -39.8 166 -40.2Q165.8 -40.8 165.6 -41.4Q165.4 -42.1 165.2 -42.8Q165 -43.4 165 -43.8Q164.7 -44.4 164.3 -44.6L163.5 -44.6Q162.9 -44.6 161.6 -44.5Q160.3 -44.4 158.8 -44.2Q157.3 -44.1 156 -44.1Q154.7 -44 154.1 -44Q153.4 -44.7 152.9 -45.5Q152.4 -46.2 152.1 -46.8Q151.7 -47.5 151.7 -48Q151.7 -49.4 152.7 -49.7L153.6 -49.8Q153.9 -49.8 155.4 -50Q156.9 -50.1 158.5 -50.2Q160.5 -50.5 162.9 -50.8Q162.9 -51.3 162.5 -52.3Q162.1 -53.2 162.2 -54.4Q163.8 -55.7 165.6 -56.8Q167.4 -58 169.6 -58L170.1 -58Q170.3 -57.7 170.7 -57Q171.1 -56.2 171.6 -55.4Q172 -54.5 172.4 -53.8Q172.8 -53.1 173 -52.8Q173.2 -52.4 173.5 -51.9Q173.7 -51.3 174.4 -51.1L182.8 -51.8Q184 -52 184.2 -52.5Q184.5 -53.3 184.7 -54.2Q184.8 -55.2 185.1 -56Q185.4 -56.8 185.6 -57.6Q185.8 -58.4 186.1 -59.2L186.4 -59.5L187.2 -59.2Q189.2 -58.5 190.8 -58Q192.4 -57.5 194.5 -56.7L196.1 -55.8L196.1 -55.2L194.2 -52.3L194.2 -52.1Q195.4 -52.1 196.3 -52.2Q197.1 -52.3 197.8 -52.3Q198.4 -52.3 198.5 -52.3Q198.6 -52.3 199.7 -52.5Q200.9 -52.6 202.2 -52.7Q203.6 -52.7 204.7 -52.6Q205.8 -52.6 205.8 -52.1L205.8 -47.6L205.3 -47.4L203.8 -47.2Q203.4 -47.2 202 -47.1Q200.7 -46.9 199.1 -46.8Q197.6 -46.7 196.3 -46.6Q195.1 -46.5 195 -46.5Q194.7 -46.5 193.8 -46.4Q192.9 -46.4 192.8 -45.9L190.7 -41.2Q190.4 -40.6 190.2 -40.7L189.3 -40.7Q189.1 -40.7 188.8 -40.7Q188.4 -40.7 187.8 -40.6Q186.7 -40.5 185.5 -40.6Q184.2 -40.7 183.2 -41Q182.2 -41.4 182.2 -42Q182.2 -43.1 182.4 -44Q182.6 -44.9 182.7 -45.7L181.9 -45.7L175.9 -45.1L175.9 -44.9Q175.9 -44.7 176 -44.2Q176.2 -43.8 176.2 -43.4Q176.2 -41.9 174.5 -41.5Q173.6 -41.2 172.4 -40.9Q171.2 -40.5 170 -40.2" style="" fill="#ec870e" id="namepathdata"/></g></g>
              <g class="slogan"><g id="sloganDefaultGroup"><path d="M39.266666666666666 33.9L39.266666666666666 35.4L21.366666666666667 35.4L21.366666666666667 33.9L33.66666666666667 33.9L33.96666666666667 30.9L24.46666666666667 30.9L25.96666666666667 21.3L22.366666666666667 21.3L22.366666666666667 19.8L38.36666666666667 19.8L38.36666666666667 21.3L27.56666666666667 21.3L27.06666666666667 24.2L35.96666666666667 24.2L35.266666666666666 33.9L39.266666666666666 33.9zM34.06666666666667 29.4L34.36666666666667 25.7L26.866666666666667 25.7L26.26666666666667 29.4L34.06666666666667 29.4zM53.766666666666666 28.8Q54.06666666666667 29.8 54.56666666666667 30.8Q55.06666666666667 31.7 55.66666666666667 32.5Q56.36666666666667 33.4 57.266666666666666 34Q58.06666666666667 34.7 59.06666666666667 35.1L58.16666666666667 36.4Q56.46666666666667 35.6 55.266666666666666 34.2Q53.96666666666667 32.8 53.266666666666666 31.2Q52.66666666666667 32.7 51.56666666666667 33.9Q50.46666666666667 35.2 48.56666666666667 36.4L47.66666666666667 35.3Q49.86666666666667 34 51.06666666666667 32.4Q52.16666666666667 30.8 52.36666666666667 28.7L48.266666666666666 28.7L48.266666666666666 27.2L52.46666666666667 27.2L52.46666666666667 23.8L48.766666666666666 23.8L48.766666666666666 22.3L53.766666666666666 22.3Q54.06666666666667 21.9 54.36666666666667 21.4Q54.56666666666667 20.9 54.86666666666667 20.3Q55.16666666666667 19.8 55.36666666666667 19.3Q55.56666666666667 18.8 55.766666666666666 18.4L57.06666666666667 18.9Q56.86666666666667 19.6 56.36666666666667 20.5Q55.86666666666667 21.4 55.36666666666667 22.3L57.96666666666667 22.3L57.96666666666667 23.8L53.86666666666667 23.8L53.86666666666667 27.2L58.56666666666667 27.2L58.56666666666667 28.7L53.766666666666666 28.7Q53.766666666666666 28.7 53.766666666666666 28.7Q53.766666666666666 28.8 53.766666666666666 28.8zM51.16666666666667 22.2Q51.06666666666667 21.9 50.86666666666667 21.5Q50.766666666666666 21 50.46666666666667 20.6Q50.266666666666666 20.1 50.06666666666667 19.7Q49.86666666666667 19.3 49.66666666666667 19.1L50.86666666666667 18.5Q50.96666666666667 18.7 51.266666666666666 19.1Q51.46666666666667 19.5 51.66666666666667 20Q51.96666666666667 20.5 52.16666666666667 20.9Q52.36666666666667 21.4 52.46666666666667 21.6L51.16666666666667 22.2zM49.06666666666667 33Q48.86666666666667 33 48.46666666666667 33.1Q48.06666666666667 33.1 47.56666666666667 33.2L47.56666666666667 36.5L46.16666666666667 36.5L46.16666666666667 33.4Q45.46666666666667 33.5 44.66666666666667 33.6Q43.86666666666667 33.7 43.16666666666667 33.8Q42.46666666666667 33.8 41.86666666666667 33.9Q41.266666666666666 34 40.96666666666667 34L40.766666666666666 32.5Q41.06666666666667 32.5 41.46666666666667 32.5Q41.86666666666667 32.5 42.266666666666666 32.4L42.266666666666666 21L41.16666666666667 21L41.16666666666667 19.6L48.66666666666667 19.6L48.66666666666667 21L47.56666666666667 21L47.56666666666667 31.8Q47.96666666666667 31.7 48.36666666666667 31.6Q48.766666666666666 31.6 49.06666666666667 31.5L49.06666666666667 33zM43.56666666666667 21L43.56666666666667 23.8L46.16666666666667 23.8L46.16666666666667 21L43.56666666666667 21zM43.56666666666667 27.8L46.16666666666667 27.8L46.16666666666667 25.1L43.56666666666667 25.1L43.56666666666667 27.8zM43.56666666666667 32.3Q44.16666666666667 32.2 44.86666666666667 32.1Q45.56666666666667 32.1 46.16666666666667 32L46.16666666666667 29.1L43.56666666666667 29.1L43.56666666666667 32.3zM77.16666666666667 19.5L77.16666666666667 33.6Q77.16666666666667 34.4 77.06666666666666 34.9Q76.96666666666667 35.4 76.66666666666667 35.7Q76.26666666666667 36 75.76666666666667 36.1Q75.16666666666667 36.2 74.26666666666667 36.3L73.06666666666666 36.3L72.56666666666666 34.9L73.96666666666667 34.8Q74.56666666666666 34.8 74.86666666666667 34.7Q75.26666666666667 34.6 75.46666666666667 34.5Q75.66666666666667 34.3 75.66666666666667 34Q75.76666666666667 33.7 75.76666666666667 33.2L75.76666666666667 20.9L63.46666666666667 20.9L63.46666666666667 36.3L62.06666666666667 36.3L62.06666666666667 19.5L77.16666666666667 19.5zM68.56666666666666 32Q68.36666666666667 31.4 68.06666666666666 30.7Q67.76666666666667 29.9 67.46666666666667 29.1Q66.76666666666667 30.4 66.06666666666666 31.6Q65.36666666666667 32.8 64.66666666666667 33.8L63.56666666666667 33Q64.46666666666667 31.8 65.16666666666667 30.4Q65.96666666666667 29 66.66666666666667 27.5Q66.06666666666666 26.3 65.46666666666667 25.1Q64.86666666666667 24 64.36666666666667 23.3L65.36666666666667 22.6Q65.86666666666667 23.2 66.36666666666667 24.1Q66.86666666666667 25 67.36666666666667 26Q67.76666666666667 25 68.16666666666667 24.1Q68.56666666666666 23.1 68.86666666666667 22.1L70.16666666666667 22.5Q69.66666666666667 23.8 69.16666666666667 25.1Q68.66666666666667 26.3 68.16666666666667 27.6Q68.66666666666667 28.6 69.06666666666666 29.5Q69.46666666666667 30.4 69.76666666666667 31.1L68.56666666666666 32zM74.46666666666667 33.4Q74.16666666666667 32.5 73.66666666666667 31.5Q73.16666666666667 30.3 72.66666666666667 29.2Q71.36666666666667 31.7 69.76666666666667 34.1L68.66666666666667 33.3Q69.56666666666666 32 70.36666666666667 30.6Q71.16666666666667 29.1 71.86666666666667 27.7Q71.26666666666667 26.6 70.76666666666667 25.7Q70.16666666666667 24.7 69.76666666666667 24.1L70.76666666666667 23.3Q71.16666666666667 23.9 71.66666666666667 24.6Q72.06666666666666 25.3 72.56666666666666 26.2Q73.36666666666667 24.2 73.96666666666667 22.3L75.26666666666667 22.7Q74.86666666666667 24 74.36666666666667 25.2Q73.86666666666667 26.5 73.36666666666667 27.7Q74.06666666666666 29 74.66666666666667 30.3Q75.26666666666667 31.6 75.56666666666666 32.5L74.46666666666667 33.4zM90.06666666666666 18.5Q91.46666666666667 20.3 93.66666666666667 21.9Q95.76666666666667 23.4 98.66666666666667 24.4L97.86666666666667 25.8Q96.66666666666667 25.3 95.46666666666667 24.6Q94.26666666666667 24 93.16666666666667 23.2Q92.06666666666666 22.5 91.06666666666666 21.6Q90.06666666666666 20.7 89.36666666666667 19.9Q88.06666666666666 21.6 85.86666666666667 23.1Q83.76666666666667 24.6 80.96666666666667 25.9L80.06666666666666 24.6Q83.06666666666666 23.3 85.26666666666667 21.8Q87.36666666666667 20.3 88.66666666666667 18.5L90.06666666666666 18.5zM90.16666666666667 34.3L97.76666666666667 34.3L97.76666666666667 35.7L80.96666666666667 35.7L80.96666666666667 34.3L88.66666666666667 34.3L88.66666666666667 29.6L81.96666666666667 29.6L81.96666666666667 28.1L88.66666666666667 28.1L88.66666666666667 25.7L84.26666666666667 25.7L84.26666666666667 24.3L94.46666666666667 24.3L94.46666666666667 25.7L90.16666666666667 25.7L90.16666666666667 28.1L96.86666666666667 28.1L96.86666666666667 29.6L90.16666666666667 29.6L90.16666666666667 34.3zM91.76666666666667 33Q92.06666666666666 32.7 92.46666666666667 32.3Q92.86666666666667 31.9 93.16666666666667 31.5Q93.56666666666666 31 93.86666666666667 30.5Q94.26666666666667 30.1 94.46666666666667 29.7L95.56666666666666 30.6Q95.36666666666667 30.9 95.06666666666666 31.4Q94.66666666666667 31.9 94.26666666666667 32.4Q93.86666666666667 32.8 93.56666666666666 33.3Q93.16666666666667 33.7 92.86666666666667 34L91.76666666666667 33zM85.76666666666667 34.1Q85.56666666666666 33.7 85.26666666666667 33.2Q84.96666666666667 32.7 84.56666666666666 32.3Q84.16666666666667 31.8 83.86666666666667 31.4Q83.46666666666667 31 83.16666666666667 30.7L84.16666666666667 29.8Q84.46666666666667 30 84.76666666666667 30.5Q85.16666666666667 30.9 85.56666666666666 31.3Q85.96666666666667 31.8 86.26666666666667 32.3Q86.66666666666667 32.7 86.86666666666667 33L85.76666666666667 34.1zM116.76666666666667 36.5Q116.56666666666666 35.7 116.36666666666667 34.6Q115.66666666666667 34.7 114.76666666666667 34.8Q113.86666666666667 34.9 112.96666666666667 35Q111.96666666666667 35.1 111.16666666666667 35.1Q110.26666666666667 35.2 109.66666666666667 35.3L109.46666666666667 33.9Q110.16666666666667 33.9 110.96666666666667 33.8Q111.86666666666667 33.8 112.76666666666667 33.7L112.76666666666667 29.6L109.96666666666667 29.6L109.96666666666667 21.7L112.76666666666667 21.7L112.76666666666667 18.5L114.06666666666666 18.5L114.06666666666666 21.7L116.76666666666667 21.7L116.76666666666667 29.6L114.06666666666666 29.6L114.06666666666666 33.6Q114.56666666666666 33.6 115.06666666666666 33.5Q115.56666666666666 33.5 115.96666666666667 33.4Q115.76666666666667 32.7 115.56666666666666 32Q115.36666666666667 31.4 115.16666666666667 30.9L116.36666666666667 30.5Q116.56666666666666 31 116.76666666666667 31.7Q117.06666666666666 32.4 117.26666666666667 33.2Q117.46666666666667 33.9 117.66666666666667 34.7Q117.86666666666667 35.4 117.86666666666667 35.9L116.76666666666667 36.5zM100.06666666666666 19.5L109.26666666666667 19.5L109.26666666666667 20.7L100.06666666666666 20.7L100.06666666666666 19.5zM108.16666666666667 22.1L108.16666666666667 25.9L101.46666666666667 25.9L101.46666666666667 22.1L108.16666666666667 22.1zM112.76666666666667 28.3L112.76666666666667 23L111.26666666666667 23L111.26666666666667 28.3L112.76666666666667 28.3zM114.06666666666666 23L114.06666666666666 28.3L115.56666666666666 28.3L115.56666666666666 23L114.06666666666666 23zM106.96666666666667 23.2L102.66666666666667 23.2L102.66666666666667 24.7L106.96666666666667 24.7L106.96666666666667 23.2zM100.66666666666667 27L108.96666666666667 27L108.96666666666667 34.4Q108.96666666666667 34.9 108.86666666666667 35.2Q108.76666666666667 35.5 108.56666666666666 35.7Q108.36666666666667 35.9 108.06666666666666 36Q107.66666666666667 36.1 107.16666666666667 36.2L106.36666666666667 36.3L106.06666666666666 35.1L106.86666666666667 35Q107.36666666666667 35 107.56666666666666 34.7Q107.76666666666667 34.5 107.76666666666667 33.9L107.76666666666667 28.2L101.86666666666667 28.2L101.86666666666667 36.1L100.66666666666667 36.1L100.66666666666667 27zM103.46666666666667 28.6Q103.56666666666666 28.8 103.76666666666667 29Q103.86666666666667 29.3 104.06666666666666 29.6Q104.16666666666667 29.8 104.36666666666667 30.1Q104.46666666666667 30.4 104.56666666666666 30.6L103.66666666666667 31.2Q103.66666666666667 30.9 103.46666666666667 30.7Q103.36666666666667 30.4 103.16666666666667 30.1Q103.06666666666666 29.8 102.86666666666667 29.5Q102.76666666666667 29.2 102.66666666666667 29.1L103.46666666666667 28.6zM105.36666666666667 32.4L105.36666666666667 35.8L104.26666666666667 35.8L104.26666666666667 32.4L102.36666666666667 32.4L102.36666666666667 31.3L104.86666666666667 31.3Q105.06666666666666 31 105.26666666666667 30.7Q105.46666666666667 30.3 105.56666666666666 30Q105.76666666666667 29.6 105.86666666666667 29.3Q106.06666666666666 28.9 106.16666666666667 28.6L107.06666666666666 29Q106.86666666666667 29.6 106.56666666666666 30.2Q106.26666666666667 30.8 105.96666666666667 31.3L107.26666666666667 31.3L107.26666666666667 32.4L105.36666666666667 32.4zM134.26666666666665 32.5Q134.96666666666667 33.2 135.86666666666667 33.8Q136.66666666666669 34.5 137.86666666666667 35.1L136.96666666666667 36.3Q135.76666666666665 35.6 134.96666666666667 34.9Q134.06666666666666 34.2 133.36666666666667 33.5Q132.26666666666665 34.8 130.56666666666666 36.1L129.66666666666669 35.2L129.66666666666669 36.6L128.26666666666665 36.6L128.26666666666665 19.4L136.06666666666666 19.4Q136.06666666666666 19.6 136.06666666666666 20Q136.06666666666666 20.5 136.06666666666666 21Q136.06666666666666 21.6 136.06666666666666 22Q135.96666666666667 22.4 135.96666666666667 22.6Q135.96666666666667 23.1 135.86666666666667 23.5Q135.76666666666665 23.8 135.56666666666666 24.1Q135.26666666666665 24.3 134.96666666666667 24.4Q134.56666666666666 24.6 133.96666666666667 24.6L132.66666666666669 24.8L132.16666666666669 23.5L133.86666666666667 23.3Q134.26666666666665 23.3 134.36666666666667 23.1Q134.56666666666666 22.9 134.56666666666666 22.4Q134.56666666666666 22.3 134.56666666666666 22.1Q134.56666666666666 21.8 134.56666666666666 21.6Q134.66666666666669 21.4 134.66666666666669 21.1Q134.66666666666669 20.9 134.66666666666669 20.8L129.66666666666669 20.8L129.66666666666669 25.8L136.36666666666667 25.8L136.36666666666667 27.2Q136.06666666666666 28.6 135.56666666666666 29.9Q135.06666666666666 31.2 134.26666666666665 32.5zM121.36666666666667 19.4L126.96666666666667 19.4L126.96666666666667 33.9Q126.96666666666667 34.9 126.56666666666666 35.4Q126.16666666666667 35.9 125.06666666666666 36L123.86666666666667 36.2L123.36666666666667 34.8L124.96666666666667 34.6Q125.36666666666667 34.6 125.46666666666667 34.3Q125.56666666666666 34 125.56666666666666 33.5L125.56666666666666 30L122.56666666666666 30Q122.46666666666667 31.8 122.06666666666666 33.4Q121.66666666666667 35 120.86666666666667 36.6L119.46666666666667 36Q119.96666666666667 35.2 120.36666666666667 34.4Q120.66666666666667 33.7 120.86666666666667 32.7Q121.16666666666667 31.7 121.26666666666667 30.4Q121.36666666666667 29 121.36666666666667 27L121.36666666666667 19.4zM122.66666666666667 20.8L122.66666666666667 24.1L125.56666666666666 24.1L125.56666666666666 20.8L122.66666666666667 20.8zM125.56666666666666 28.7L125.56666666666666 25.4L122.66666666666667 25.4L122.66666666666667 27.6Q122.66666666666667 27.9 122.66666666666667 28.2Q122.66666666666667 28.4 122.66666666666667 28.7L125.56666666666666 28.7zM129.66666666666669 35Q130.56666666666666 34.4 131.26666666666665 33.8Q131.96666666666667 33.2 132.56666666666666 32.5Q131.86666666666667 31.5 131.26666666666665 30.5Q130.76666666666665 29.3 130.26666666666665 28L131.46666666666667 27.6Q131.86666666666667 28.8 132.26666666666665 29.7Q132.76666666666665 30.7 133.36666666666667 31.5Q133.96666666666667 30.4 134.36666666666667 29.4Q134.76666666666665 28.3 135.06666666666666 27.2L129.66666666666669 27.2L129.66666666666669 35zM149.86666666666667 25Q151.26666666666668 25.7 153.16666666666666 26.2Q154.96666666666667 26.7 157.46666666666667 27.1L156.96666666666667 28.5Q155.46666666666667 28.2 154.26666666666668 27.9Q153.06666666666666 27.6 151.96666666666667 27.3Q150.96666666666667 27 150.06666666666666 26.7Q149.16666666666666 26.3 148.26666666666665 25.9Q146.66666666666669 26.7 144.56666666666666 27.5Q142.56666666666666 28.2 139.76666666666665 28.8L139.16666666666669 27.4Q141.56666666666666 26.9 143.46666666666667 26.4Q145.36666666666667 25.8 146.86666666666667 25.1Q145.26666666666665 24 143.86666666666667 22.5Q143.16666666666669 23.1 142.46666666666667 23.7Q141.66666666666669 24.4 140.86666666666667 24.9L139.96666666666667 24Q140.76666666666665 23.4 141.56666666666666 22.7Q142.36666666666667 21.9 143.16666666666669 21.2Q143.86666666666667 20.4 144.46666666666667 19.6Q145.06666666666666 18.9 145.46666666666667 18.2L146.86666666666667 18.7Q146.66666666666669 19.1 146.36666666666667 19.5Q146.16666666666669 19.8 145.86666666666667 20.2L154.46666666666667 20.2L154.46666666666667 21.4Q153.36666666666667 22.4 152.26666666666668 23.3Q151.16666666666666 24.2 149.86666666666667 25zM144.76666666666665 21.4Q145.56666666666666 22.3 146.46666666666667 23Q147.26666666666665 23.7 148.36666666666667 24.3Q149.46666666666667 23.6 150.46666666666667 22.9Q151.46666666666667 22.2 152.26666666666668 21.4L144.86666666666667 21.4L144.76666666666665 21.4zM147.86666666666667 27.5Q147.76666666666665 27.7 147.76666666666665 28.2Q147.66666666666669 28.6 147.56666666666666 29.2L154.66666666666666 29.2Q154.66666666666666 29.5 154.56666666666666 30.1Q154.46666666666667 30.8 154.36666666666667 31.5Q154.26666666666668 32.2 154.16666666666666 32.9Q154.16666666666666 33.5 154.06666666666666 33.8Q153.96666666666667 34.4 153.86666666666667 34.9Q153.66666666666666 35.3 153.36666666666667 35.5Q153.16666666666666 35.8 152.76666666666668 35.9Q152.36666666666667 36 151.76666666666668 36L149.66666666666666 36.2L149.16666666666666 34.9L151.26666666666668 34.7Q151.86666666666667 34.6 152.16666666666666 34.3Q152.46666666666667 34 152.66666666666666 33.3Q152.66666666666666 33.1 152.76666666666668 32.7Q152.76666666666668 32.2 152.86666666666667 31.8Q152.86666666666667 31.4 152.96666666666667 31Q152.96666666666667 30.7 152.96666666666667 30.5L147.36666666666667 30.5Q147.06666666666666 31.7 146.56666666666666 32.6Q146.06666666666666 33.5 145.26666666666665 34.3Q144.46666666666667 35 143.26666666666665 35.6Q142.16666666666669 36.2 140.46666666666667 36.7L139.76666666666665 35.4Q141.16666666666669 35 142.16666666666669 34.5Q143.16666666666669 34 143.96666666666667 33.5Q144.66666666666669 32.9 145.06666666666666 32.2Q145.56666666666666 31.4 145.76666666666665 30.5L141.26666666666665 30.5L141.26666666666665 29.2L146.06666666666666 29.2Q146.16666666666669 28.6 146.16666666666669 28.1Q146.26666666666665 27.6 146.26666666666665 27.4L147.86666666666667 27.5zM176.86666666666667 30L168.86666666666667 30L168.86666666666667 36.5L167.26666666666668 36.5L167.26666666666668 30L159.26666666666668 30L159.26666666666668 28.5L167.26666666666668 28.5L167.26666666666668 21L160.46666666666667 21L160.46666666666667 19.5L175.66666666666666 19.5L175.66666666666666 21L168.86666666666667 21L168.86666666666667 28.5L176.86666666666667 28.5L176.86666666666667 30zM162.36666666666667 22.1Q162.66666666666666 22.5 163.16666666666666 23.1Q163.56666666666666 23.7 163.96666666666667 24.4Q164.46666666666667 25.1 164.86666666666667 25.7Q165.26666666666668 26.4 165.56666666666666 26.9L164.26666666666668 27.6Q164.06666666666666 27.1 163.66666666666666 26.5Q163.26666666666668 25.8 162.76666666666668 25.1Q162.36666666666667 24.5 161.96666666666667 23.9Q161.46666666666667 23.3 161.16666666666666 22.9L162.36666666666667 22.1zM170.36666666666667 26.9Q170.76666666666668 26.5 171.26666666666668 25.9Q171.76666666666668 25.3 172.16666666666666 24.6Q172.56666666666666 23.9 172.96666666666667 23.3Q173.36666666666667 22.6 173.56666666666666 22.1L174.86666666666667 22.9Q174.56666666666666 23.3 174.16666666666666 24Q173.76666666666668 24.6 173.36666666666667 25.3Q172.86666666666667 26 172.46666666666667 26.6Q171.96666666666667 27.3 171.66666666666666 27.7L170.36666666666667 26.9zM190.56666666666666 20.2Q191.16666666666666 20.7 191.86666666666667 21.4Q192.66666666666666 22.1 193.36666666666667 22.9Q194.16666666666666 23.7 194.76666666666668 24.5Q195.46666666666667 25.3 195.86666666666667 25.9L194.86666666666667 27.2Q194.56666666666666 26.8 194.26666666666668 26.4Q193.96666666666667 26 193.66666666666666 25.5Q193.16666666666666 25.6 192.16666666666666 25.6Q191.16666666666666 25.6 189.96666666666667 25.6Q188.76666666666668 25.7 187.46666666666667 25.7Q186.16666666666666 25.8 185.06666666666666 25.8Q183.96666666666667 25.8 183.06666666666666 25.9Q182.26666666666668 25.9 181.96666666666667 25.9Q181.46666666666667 26 180.96666666666667 26Q180.46666666666667 26 179.96666666666667 26.1L179.56666666666666 24.6Q180.26666666666668 24.5 180.56666666666666 24.4Q180.86666666666667 24.3 181.16666666666666 24.1Q181.76666666666668 23.6 182.46666666666667 22.9Q183.16666666666666 22.1 183.96666666666667 21.3Q184.66666666666666 20.5 185.36666666666667 19.7Q186.06666666666666 18.8 186.46666666666667 18.1L187.76666666666668 18.9Q187.26666666666668 19.6 186.66666666666666 20.4Q186.06666666666666 21.1 185.36666666666667 21.9Q184.76666666666668 22.6 184.06666666666666 23.3Q183.46666666666667 23.9 182.86666666666667 24.4Q183.26666666666668 24.4 183.86666666666667 24.4Q184.56666666666666 24.4 185.46666666666667 24.3Q186.26666666666668 24.3 187.26666666666668 24.3Q188.26666666666668 24.2 189.16666666666666 24.2Q190.06666666666666 24.2 190.96666666666667 24.2Q191.76666666666668 24.1 192.36666666666667 24.1Q191.66666666666666 23.3 190.86666666666667 22.5Q190.16666666666666 21.7 189.56666666666666 21.3L190.56666666666666 20.2zM181.36666666666667 28.2L194.06666666666666 28.2L194.06666666666666 36.5L192.56666666666666 36.5L192.56666666666666 35.4L182.86666666666667 35.4L182.86666666666667 36.5L181.36666666666667 36.5L181.36666666666667 28.2zM182.86666666666667 29.7L182.86666666666667 33.9L192.56666666666666 33.9L192.56666666666666 29.7L182.86666666666667 29.7z" style="" fill="#ec870e" id="sloganpathdata"/></g></g>
            </g>
            <g class="border">
            </g>
          </g>
          
          <defs id="defs">
            <mask xmlns="http://www.w3.org/2000/svg" id="mask">
                <rect id="showAll" fill="" x="-40" y="-97" width="295.43333333333334" height="171.2"/>
                <rect id="hideNameBg" fill="" x="5" y="-59.5" width="205.43333333333334" height="96.2" stroke-width="2" stroke="" style="stroke-width: 5;"/>
                <rect id="hideSloganBg" fill="" x="0" y="0" width="0" height="0" stroke-width="2" stroke=""/>
            </mask>
          </defs>
          
        </g>
        </svg>